<?xml version="1.0" encoding="utf-8"?>
<!-- Generator: Adobe Illustrator 24.1.3, SVG Export Plug-In . SVG Version: 6.00 Build 0)  -->
<svg version="1.1" id="Layer_1" xmlns="http://www.w3.org/2000/svg" xmlns:xlink="http://www.w3.org/1999/xlink" x="0px" y="0px"
	 viewBox="0 0 100 100" style="enable-background:new 0 0 100 100;" xml:space="preserve">
<style type="text/css">
	.st0{fill:#60F4E6;}
</style>
<g>
	<path class="st0" d="M53.32,0.02C72.5-0.51,84.1,8.76,92.6,22.34c7.59,12.13,9.77,25.25,4.55,38.93
		c-2.94,7.71-8.27,13.71-15.3,18.18c-2.05,1.3-3.27,2.73-3.7,5.11c-0.59,3.25-2.08,6.2-4.17,8.81c-3.69,4.6-8.58,6.31-14.4,5.29
		c-1.55-0.27-2.85-0.14-4.27,0.38c-1.95,0.71-4.1,1.28-6.09,0.75c-4.08-1.08-8.1-0.58-12.2-0.5c-6.54,0.13-11.99-4.22-13.89-10.89
		c-0.66-2.3-1.89-3.76-3.78-5.16C9.61,76.03,2.78,66.88,0.57,54.93c-1.2-6.46-0.48-12.81,1.88-18.97
		C6.09,26.51,10.69,17.69,18.79,11c7.41-6.1,16.1-9.13,25.58-10.25C47.89,0.33,51.42-0.06,53.32,0.02z"/>
	<path d="M56.65,87.28c-4.02,5.4-8.91,5.45-12.89,0.27c-0.2,0.13-0.47,0.23-0.6,0.41c-1.87,2.62-4.48,3.47-7.51,2.6
		c-3.03-0.86-4.6-3.41-4.48-6.15c0.15-3.37-1.67-4.68-4.14-6.32c-9.76-6.45-16.69-14.84-18.12-26.7c-0.37-3.09-0.17-6.17,0.75-9.13
		c3.57-11.43,8.7-21.86,19.85-28.24c6.01-3.44,12.67-4.63,19.49-5.2c1.47-0.12,2.96-0.12,4.43-0.26c8.77-0.86,16.33,1.77,22.78,7.52
		c8.97,7.99,14.41,17.78,14.88,29.71c0.52,13.15-6.01,22.5-17.61,28.69c-1.79,0.95-2.87,1.86-2.96,4.04
		c-0.09,2.27-0.78,4.53-1.68,6.68C66.22,91.35,61.35,92.23,56.65,87.28z"/>
	<path class="st0" d="M68.18,61.59c0.04,1.56-1.59,2.62-3.11,1.93c-0.6-0.27-1.18-0.74-1.58-1.26c-1.23-1.61-2.36-1.74-3.58-0.01
		c-0.27,0.39-0.64,0.73-1.01,1.04c-1.05,0.87-2.18,0.91-3.15-0.06c-0.87-0.87-0.97-2.11-0.02-2.82c2.72-2.03,2.56-3.72-0.14-5.61
		c-1.18-0.83-1.4-2.13-0.24-3.23c1.17-1.12,2.32-0.68,3.37,0.28c0.5,0.46,1.05,0.89,1.47,1.41c0.87,1.06,1.64,1.14,2.53,0.01
		c0.47-0.6,1.07-1.12,1.64-1.64c1.08-0.98,2.23-1.22,3.35-0.08c1.05,1.07,0.61,2.09-0.22,3.06c-0.19,0.22-0.38,0.46-0.61,0.62
		c-2.3,1.55-2.02,3,0.11,4.46C67.64,60.12,68.15,60.74,68.18,61.59z"/>
	<path class="st0" d="M41.52,63.72c-0.81-0.01-1.47-0.64-1.98-1.32c-1.44-1.9-2.66-1.61-4.01,0.11c-0.95,1.22-2.24,2.16-3.72,0.83
		c-1.65-1.48-0.62-2.85,0.69-3.84c2.01-1.51,1.44-2.61-0.2-3.93c-1.09-0.87-2.58-1.93-1.34-3.57c1.61-2.12,3.15-0.9,4.31,0.52
		c1.55,1.9,2.76,1.88,4.23-0.07c0.95-1.25,2.31-2.53,3.92-1.08c1.75,1.57,0.47,3.06-0.87,4.07c-2.13,1.59-1.64,2.79,0.2,4.11
		c1,0.72,1.69,1.7,1.11,2.97C43.48,63.36,42.7,63.79,41.52,63.72z"/>
</g>
</svg>
